<svg width="20" height="18" viewBox="0 0 20 18" fill="none" xmlns="http://www.w3.org/2000/svg">
<path d="M17.6975 2.72857V4.56969C17.5652 4.3404 17.4228 4.11641 17.2697 3.89865C16.7339 3.13649 16.0849 2.46569 15.3406 1.90484C14.5874 1.33731 13.7545 0.895974 12.8651 0.593121C11.9452 0.279898 10.9819 0.121094 10.0022 0.121094C8.97906 0.121094 7.97556 0.29393 7.01967 0.634823C6.09585 0.964249 5.23726 1.44268 4.46773 2.05685C3.70581 2.66494 3.0527 3.38874 2.52661 4.20812C1.99067 5.04286 1.60156 5.95383 1.3701 6.91571C1.22138 7.53378 1.60185 8.1554 2.21994 8.30412C2.31045 8.32589 2.40102 8.33633 2.49017 8.33633C3.0099 8.33633 3.4814 7.98186 3.60835 7.4543C3.94753 6.04469 4.76273 4.76687 5.90379 3.85618C6.47386 3.40121 7.10943 3.04694 7.79286 2.80325C8.49993 2.55111 9.24323 2.42326 10.0022 2.42326C11.442 2.42326 12.809 2.87979 13.9552 3.74346C14.7308 4.3279 15.3703 5.08443 15.8219 5.93806H14.5466C13.9109 5.93806 13.3955 6.45342 13.3955 7.08914C13.3955 7.72486 13.9109 8.24021 14.5466 8.24021H18.8485C19.4843 8.24021 19.9996 7.72486 19.9996 7.08914V2.72857C19.9996 2.09285 19.4843 1.5775 18.8485 1.5775C18.2128 1.5775 17.6975 2.09285 17.6975 2.72857Z" fill="white"/>
<path d="M1.15107 16.4209C1.78679 16.4209 2.30214 15.9056 2.30214 15.2698V13.421C2.98785 14.6145 3.94261 15.6344 5.10098 16.4027C6.55344 17.366 8.24543 17.8757 9.9946 17.8772C9.99556 17.8772 9.9965 17.8773 9.99745 17.8773C9.99821 17.8773 9.999 17.8773 9.99977 17.8773C10.0007 17.8773 10.0016 17.8773 10.0025 17.8773C10.0037 17.8773 10.0049 17.8772 10.0061 17.8772C11.0262 17.8762 12.0267 17.7035 12.9799 17.3636C13.9037 17.0341 14.7623 16.5557 15.5318 15.9416C16.2938 15.3335 16.9469 14.6097 17.473 13.7903C18.0089 12.9556 18.398 12.0446 18.6295 11.0827C18.7782 10.4647 18.3978 9.84303 17.7796 9.69432C17.1615 9.5456 16.54 9.92607 16.3912 10.5441C16.052 11.9538 15.2368 13.2316 14.0958 14.1423C13.5257 14.5972 12.8902 14.9515 12.2067 15.1952C11.5004 15.447 10.7579 15.5749 9.99979 15.5751C8.70283 15.5746 7.44888 15.1974 6.37341 14.4841C5.44598 13.869 4.69477 13.0369 4.18074 12.0604H5.45301C6.08876 12.0604 6.60409 11.545 6.60409 10.9093C6.60409 10.2736 6.08873 9.75823 5.45301 9.75823H1.15107C0.515351 9.75823 0 10.2736 0 10.9093V15.2698C0 15.9056 0.515351 16.4209 1.15107 16.4209Z" fill="white"/>
</svg>
